<?xml version="1.0" encoding="UTF-8"?> <svg xmlns="http://www.w3.org/2000/svg" xmlns:xlink="http://www.w3.org/1999/xlink" viewBox="0 0 721.33 233.17"><defs><style>.cls-1{fill:none;}.cls-2{fill:#828bc5;}.cls-3{fill:url(#linear-gradient);}.cls-4{fill:url(#linear-gradient-2);}.cls-5{fill:#bfccd6;}</style><linearGradient id="linear-gradient" x1="58.92" y1="150.72" x2="164.31" y2="25.12" gradientUnits="userSpaceOnUse"><stop offset="0" stop-color="#65c4da" stop-opacity="0"></stop><stop offset="0.04" stop-color="#53c1d9" stop-opacity="0.12"></stop><stop offset="0.1" stop-color="#3dbed8" stop-opacity="0.27"></stop><stop offset="0.16" stop-color="#2abcd8" stop-opacity="0.4"></stop><stop offset="0.24" stop-color="#1abad7" stop-opacity="0.5"></stop><stop offset="0.32" stop-color="#0eb8d7" stop-opacity="0.58"></stop><stop offset="0.43" stop-color="#06b7d6" stop-opacity="0.63"></stop><stop offset="0.58" stop-color="#01b6d6" stop-opacity="0.67"></stop><stop offset="1" stop-color="#00b6d6" stop-opacity="0.67"></stop><stop offset="1" stop-color="#00b6d6" stop-opacity="0.68"></stop><stop offset="1" stop-color="#00b5d6" stop-opacity="0.72"></stop><stop offset="1" stop-color="#00b4d5" stop-opacity="0.77"></stop><stop offset="1" stop-color="#00b2d4" stop-opacity="0.86"></stop><stop offset="1" stop-color="#00b0d3" stop-opacity="0.96"></stop><stop offset="1" stop-color="#00afd3"></stop></linearGradient><linearGradient id="linear-gradient-2" x1="55.62" y1="299.46" x2="231.53" y2="151.86" gradientUnits="userSpaceOnUse"><stop offset="0" stop-color="#65c4da"></stop><stop offset="0.38" stop-color="#65c4da" stop-opacity="0.99"></stop><stop offset="0.52" stop-color="#65c4da" stop-opacity="0.96"></stop><stop offset="0.62" stop-color="#65c4da" stop-opacity="0.91"></stop><stop offset="0.7" stop-color="#64c4da" stop-opacity="0.83"></stop><stop offset="0.77" stop-color="#64c4da" stop-opacity="0.73"></stop><stop offset="0.83" stop-color="#63c4da" stop-opacity="0.6"></stop><stop offset="0.89" stop-color="#63c3d9" stop-opacity="0.45"></stop><stop offset="0.94" stop-color="#62c3d9" stop-opacity="0.28"></stop><stop offset="0.98" stop-color="#61c3d9" stop-opacity="0.09"></stop><stop offset="1" stop-color="#61c3d9" stop-opacity="0"></stop></linearGradient></defs><title>Asset 5</title><g id="Layer_2" data-name="Layer 2"><g id="Layer_1-2" data-name="Layer 1"><polygon class="cls-1" points="51.13 144.18 51.13 144.18 51.13 144.18 51.13 144.18"></polygon><polygon class="cls-2" points="268.99 233.17 111.31 168.76 51.13 144.18 93.28 71.17 142.08 91.62 201.68 116.58 268.99 233.17"></polygon><polygon class="cls-3" points="175.96 72.04 142.08 91.62 51.13 144.18 93.28 71.17 134.37 0 175.96 72.04"></polygon><polygon class="cls-4" points="269.24 233.17 0 233.17 111.56 168.76 201.93 116.58 269.24 233.17"></polygon><circle class="cls-5" cx="604.94" cy="52.64" r="7.35"></circle><path class="cls-5" d="M272.05,95.22a47.58,47.58,0,0,1,10-14.39,46.26,46.26,0,0,1,14.68-9.72,45.63,45.63,0,0,1,17.94-3.56,45,45,0,0,1,17.86,3.56,47.75,47.75,0,0,1,14.68,9.72A48.5,48.5,0,0,1,357.4,95.22a43.42,43.42,0,0,1,4,17.58H349.26V113a31.86,31.86,0,0,0-3.08-13,35.41,35.41,0,0,0-18.42-17.67,33.25,33.25,0,0,0-13.09-2.61,34.5,34.5,0,0,0-24,9.72,35.63,35.63,0,0,0-7.39,10.47,34.3,34.3,0,0,0-3.17,12.9H267.93A46.5,46.5,0,0,1,272.05,95.22Zm77.21,50.67A47.15,47.15,0,0,1,333.84,157a47.42,47.42,0,0,1-37.11.47,47.22,47.22,0,0,1-14.68-9.63,47,47,0,0,1-14.12-32.07h12.16a34.21,34.21,0,0,0,3.17,12.9,35.63,35.63,0,0,0,7.39,10.47,34.62,34.62,0,0,0,48,.19,34.66,34.66,0,0,0,7.48-10.56,35.24,35.24,0,0,0,3.17-13h12.16v82.64H349.26Z"></path><path class="cls-5" d="M382.36,95.22a47.58,47.58,0,0,1,10-14.39A46.37,46.37,0,0,1,407,71.11,45.64,45.64,0,0,1,425,67.55a44.9,44.9,0,0,1,17.85,3.56,47.75,47.75,0,0,1,14.68,9.72,48.32,48.32,0,0,1,10.19,14.39,43.42,43.42,0,0,1,4,17.58H459.58V113a32,32,0,0,0-3.09-13,35.44,35.44,0,0,0-18.41-17.67,34.13,34.13,0,0,0-26.18,0,35.8,35.8,0,0,0-10.85,7.11,35,35,0,0,0-7.47,10.47,34.5,34.5,0,0,0-3.18,12.9H378.24A46.5,46.5,0,0,1,382.36,95.22Zm77.22,50.67A47.29,47.29,0,0,1,444.15,157a47.42,47.42,0,0,1-37.11.47,47.34,47.34,0,0,1-14.68-9.63,47,47,0,0,1-14.12-32.07H390.4a34.41,34.41,0,0,0,3.18,12.9,35,35,0,0,0,7.47,10.47,35.61,35.61,0,0,0,10.85,7.11A33,33,0,0,0,425,148.89a35.39,35.39,0,0,0,24.21-9.54,33.76,33.76,0,0,0,7.57-10.56,30.63,30.63,0,0,0,2.81-13h12.15V161H459.58Z"></path><path class="cls-5" d="M582,112.8H569.89a31.3,31.3,0,0,0-3.09-12.9,37.05,37.05,0,0,0-7.48-10.47,34.38,34.38,0,0,0-10.75-7.11,33.71,33.71,0,0,0-13.27-2.61,33.25,33.25,0,0,0-13.09,2.61,35.63,35.63,0,0,0-10.84,7.11,34.74,34.74,0,0,0-10.66,23.37H488.56a46.3,46.3,0,0,1,4.11-17.58,47,47,0,0,1,10.09-14.39,47.75,47.75,0,0,1,14.68-9.72,45,45,0,0,1,17.86-3.56,45.67,45.67,0,0,1,18,3.56,46.21,46.21,0,0,1,14.67,9.72A49,49,0,0,1,578,95.22,43.09,43.09,0,0,1,582,112.8Zm-81.33,85.63H488.56V115.79h12.15a35.25,35.25,0,0,0,3.18,13,34.49,34.49,0,0,0,7.48,10.56,34.46,34.46,0,0,0,23.93,9.54,33.54,33.54,0,0,0,13.27-2.62,34.21,34.21,0,0,0,10.75-7.11,37.05,37.05,0,0,0,7.48-10.47,31.23,31.23,0,0,0,3.09-12.9H582a43.41,43.41,0,0,1-4,17.76,47.7,47.7,0,0,1-10.1,14.31,47.18,47.18,0,0,1-14.67,9.63,47.44,47.44,0,0,1-37.12-.47,47.15,47.15,0,0,1-15.42-11.13Z"></path><path class="cls-5" d="M598.87,67.74H611V112.8H598.87Zm0,48.05H611V161H598.87Z"></path><path class="cls-5" d="M632,95.22a47.58,47.58,0,0,1,10-14.39,46.37,46.37,0,0,1,14.68-9.72,45.64,45.64,0,0,1,18-3.56,45,45,0,0,1,17.86,3.56,47.95,47.95,0,0,1,24.86,24.11,43.09,43.09,0,0,1,4,17.58H709.18V113a31.87,31.87,0,0,0-3.09-13,35.44,35.44,0,0,0-18.41-17.67,33.29,33.29,0,0,0-13.09-2.61,33.91,33.91,0,0,0-13.18,2.61,34.28,34.28,0,0,0-10.85,7.11,35.79,35.79,0,0,0-7.38,10.47A34.5,34.5,0,0,0,640,112.8H627.85A46.49,46.49,0,0,1,632,95.22Zm-4.11,20.57H640a34.41,34.41,0,0,0,3.18,12.9,35.79,35.79,0,0,0,7.38,10.47,34.11,34.11,0,0,0,10.85,7.11,33.74,33.74,0,0,0,13.18,2.62,33.12,33.12,0,0,0,13.09-2.62,35.44,35.44,0,0,0,18.41-17.67,31.79,31.79,0,0,0,3.09-13v.18h12.15a43.06,43.06,0,0,1-4,17.58,48,48,0,0,1-24.86,24.12A45,45,0,0,1,674.59,161a45.63,45.63,0,0,1-18-3.55A46.4,46.4,0,0,1,642,147.76a47.58,47.58,0,0,1-10-14.39A46.44,46.44,0,0,1,627.85,115.79Z"></path></g></g></svg> 